<mxfile host="app.diagrams.net" agent="Mozilla/5.0 (X11; Linux x86_64) AppleWebKit/537.36 (KHTML, like Gecko) Chrome/128.0.0.0 Safari/537.36" version="24.7.14">
  <diagram name="Pagina-1" id="LurcF_mtdvXsTmK9osUw">
    <mxGraphModel dx="2583" dy="772" grid="1" gridSize="10" guides="1" tooltips="1" connect="1" arrows="1" fold="1" page="1" pageScale="1" pageWidth="1169" pageHeight="827" background="#FFFFFF" math="0" shadow="0">
      <root>
        <mxCell id="0" />
        <mxCell id="1" parent="0" />
        <mxCell id="dAVA-3UnieK7vrGghhuB-1" style="rounded=0;orthogonalLoop=1;jettySize=auto;html=1;exitX=0;exitY=0.5;exitDx=0;exitDy=0;entryX=1;entryY=0.5;entryDx=0;entryDy=0;endArrow=none;endFill=0;" edge="1" parent="1" source="dAVA-3UnieK7vrGghhuB-25" target="dAVA-3UnieK7vrGghhuB-21">
          <mxGeometry relative="1" as="geometry" />
        </mxCell>
        <mxCell id="dAVA-3UnieK7vrGghhuB-2" style="edgeStyle=none;rounded=0;orthogonalLoop=1;jettySize=auto;html=1;entryX=1;entryY=0.5;entryDx=0;entryDy=0;exitX=0;exitY=0.5;exitDx=0;exitDy=0;endArrow=none;endFill=0;" edge="1" parent="1" source="dAVA-3UnieK7vrGghhuB-25" target="dAVA-3UnieK7vrGghhuB-20">
          <mxGeometry relative="1" as="geometry" />
        </mxCell>
        <mxCell id="dAVA-3UnieK7vrGghhuB-3" style="rounded=0;orthogonalLoop=1;jettySize=auto;html=1;exitX=0;exitY=0.5;exitDx=0;exitDy=0;entryX=1;entryY=0.5;entryDx=0;entryDy=0;endArrow=none;endFill=0;" edge="1" parent="1" source="dAVA-3UnieK7vrGghhuB-25" target="dAVA-3UnieK7vrGghhuB-19">
          <mxGeometry relative="1" as="geometry">
            <mxPoint x="-490" y="410" as="targetPoint" />
          </mxGeometry>
        </mxCell>
        <mxCell id="dAVA-3UnieK7vrGghhuB-4" style="edgeStyle=orthogonalEdgeStyle;rounded=0;orthogonalLoop=1;jettySize=auto;html=1;exitX=0;exitY=0.5;exitDx=0;exitDy=0;entryX=1;entryY=0.5;entryDx=0;entryDy=0;endArrow=none;endFill=0;" edge="1" parent="1" source="dAVA-3UnieK7vrGghhuB-8" target="dAVA-3UnieK7vrGghhuB-6">
          <mxGeometry relative="1" as="geometry">
            <mxPoint x="280" y="125" as="targetPoint" />
          </mxGeometry>
        </mxCell>
        <mxCell id="dAVA-3UnieK7vrGghhuB-5" style="rounded=0;orthogonalLoop=1;jettySize=auto;html=1;exitX=0;exitY=0.5;exitDx=0;exitDy=0;entryX=1;entryY=0.5;entryDx=0;entryDy=0;endArrow=none;endFill=0;" edge="1" parent="1" source="dAVA-3UnieK7vrGghhuB-6" target="dAVA-3UnieK7vrGghhuB-45">
          <mxGeometry relative="1" as="geometry" />
        </mxCell>
        <mxCell id="dAVA-3UnieK7vrGghhuB-6" value="Anbieter" style="rounded=0;whiteSpace=wrap;html=1;" vertex="1" parent="1">
          <mxGeometry x="-350" y="50" width="120" height="60" as="geometry" />
        </mxCell>
        <mxCell id="dAVA-3UnieK7vrGghhuB-7" style="edgeStyle=none;rounded=0;orthogonalLoop=1;jettySize=auto;html=1;exitX=0.5;exitY=1;exitDx=0;exitDy=0;endArrow=none;endFill=0;" edge="1" parent="1" source="dAVA-3UnieK7vrGghhuB-8" target="dAVA-3UnieK7vrGghhuB-13">
          <mxGeometry relative="1" as="geometry" />
        </mxCell>
        <mxCell id="dAVA-3UnieK7vrGghhuB-8" value="bietet an" style="rhombus;whiteSpace=wrap;html=1;" vertex="1" parent="1">
          <mxGeometry x="18.5" y="40" width="140" height="80" as="geometry" />
        </mxCell>
        <mxCell id="dAVA-3UnieK7vrGghhuB-9" style="edgeStyle=orthogonalEdgeStyle;rounded=0;orthogonalLoop=1;jettySize=auto;html=1;exitX=0.5;exitY=1;exitDx=0;exitDy=0;entryX=0.5;entryY=0;entryDx=0;entryDy=0;endArrow=none;endFill=0;" edge="1" parent="1" source="dAVA-3UnieK7vrGghhuB-13" target="dAVA-3UnieK7vrGghhuB-15">
          <mxGeometry relative="1" as="geometry" />
        </mxCell>
        <mxCell id="dAVA-3UnieK7vrGghhuB-10" style="edgeStyle=orthogonalEdgeStyle;rounded=0;orthogonalLoop=1;jettySize=auto;html=1;exitX=1;exitY=0.5;exitDx=0;exitDy=0;entryX=0;entryY=0.5;entryDx=0;entryDy=0;endArrow=none;endFill=0;" edge="1" parent="1" source="dAVA-3UnieK7vrGghhuB-13" target="dAVA-3UnieK7vrGghhuB-35">
          <mxGeometry relative="1" as="geometry" />
        </mxCell>
        <mxCell id="dAVA-3UnieK7vrGghhuB-11" style="edgeStyle=orthogonalEdgeStyle;rounded=0;orthogonalLoop=1;jettySize=auto;html=1;exitX=0;exitY=0.5;exitDx=0;exitDy=0;entryX=1;entryY=0.5;entryDx=0;entryDy=0;endArrow=none;endFill=0;" edge="1" parent="1" source="dAVA-3UnieK7vrGghhuB-13" target="dAVA-3UnieK7vrGghhuB-42">
          <mxGeometry relative="1" as="geometry" />
        </mxCell>
        <mxCell id="dAVA-3UnieK7vrGghhuB-12" style="rounded=0;orthogonalLoop=1;jettySize=auto;html=1;exitX=1;exitY=1;exitDx=0;exitDy=0;entryX=0.1;entryY=0.2;entryDx=0;entryDy=0;endArrow=none;endFill=0;entryPerimeter=0;" edge="1" parent="1" source="dAVA-3UnieK7vrGghhuB-13" target="dAVA-3UnieK7vrGghhuB-46">
          <mxGeometry relative="1" as="geometry" />
        </mxCell>
        <mxCell id="dAVA-3UnieK7vrGghhuB-13" value="Immobilien" style="rounded=0;whiteSpace=wrap;html=1;" vertex="1" parent="1">
          <mxGeometry x="28.5" y="330" width="120" height="60" as="geometry" />
        </mxCell>
        <mxCell id="dAVA-3UnieK7vrGghhuB-14" style="edgeStyle=none;rounded=0;orthogonalLoop=1;jettySize=auto;html=1;exitX=0;exitY=0.5;exitDx=0;exitDy=0;entryX=1;entryY=0.5;entryDx=0;entryDy=0;endArrow=none;endFill=0;" edge="1" parent="1" source="dAVA-3UnieK7vrGghhuB-15" target="dAVA-3UnieK7vrGghhuB-18">
          <mxGeometry relative="1" as="geometry">
            <mxPoint x="660" y="664.9999999999998" as="sourcePoint" />
            <mxPoint x="660" y="784.9999999999998" as="targetPoint" />
          </mxGeometry>
        </mxCell>
        <mxCell id="dAVA-3UnieK7vrGghhuB-15" value="interresiert" style="rhombus;whiteSpace=wrap;html=1;" vertex="1" parent="1">
          <mxGeometry x="28.5" y="590" width="120" height="80" as="geometry" />
        </mxCell>
        <mxCell id="dAVA-3UnieK7vrGghhuB-16" style="edgeStyle=orthogonalEdgeStyle;rounded=0;orthogonalLoop=1;jettySize=auto;html=1;exitX=0.5;exitY=0;exitDx=0;exitDy=0;entryX=0.5;entryY=1;entryDx=0;entryDy=0;endArrow=none;endFill=0;" edge="1" parent="1" source="dAVA-3UnieK7vrGghhuB-18" target="dAVA-3UnieK7vrGghhuB-32">
          <mxGeometry relative="1" as="geometry" />
        </mxCell>
        <mxCell id="dAVA-3UnieK7vrGghhuB-17" style="rounded=0;orthogonalLoop=1;jettySize=auto;html=1;exitX=0;exitY=0.5;exitDx=0;exitDy=0;entryX=1;entryY=0.5;entryDx=0;entryDy=0;endArrow=none;endFill=0;" edge="1" parent="1" source="dAVA-3UnieK7vrGghhuB-18" target="dAVA-3UnieK7vrGghhuB-47">
          <mxGeometry relative="1" as="geometry" />
        </mxCell>
        <mxCell id="dAVA-3UnieK7vrGghhuB-18" value="Interessenten" style="rounded=0;whiteSpace=wrap;html=1;" vertex="1" parent="1">
          <mxGeometry x="-350" y="600" width="120" height="60" as="geometry" />
        </mxCell>
        <mxCell id="dAVA-3UnieK7vrGghhuB-19" value="Ort" style="ellipse;whiteSpace=wrap;html=1;" vertex="1" parent="1">
          <mxGeometry x="-520" y="352.5" width="120" height="80" as="geometry" />
        </mxCell>
        <mxCell id="dAVA-3UnieK7vrGghhuB-20" value="PLZ" style="ellipse;whiteSpace=wrap;html=1;" vertex="1" parent="1">
          <mxGeometry x="-520" y="437.5" width="120" height="80" as="geometry" />
        </mxCell>
        <mxCell id="dAVA-3UnieK7vrGghhuB-21" value="StraÃŸe" style="ellipse;whiteSpace=wrap;html=1;" vertex="1" parent="1">
          <mxGeometry x="-520" y="267.5" width="120" height="80" as="geometry" />
        </mxCell>
        <mxCell id="dAVA-3UnieK7vrGghhuB-22" value="&lt;div&gt;1,1&lt;/div&gt;" style="text;html=1;align=center;verticalAlign=middle;resizable=0;points=[];autosize=1;strokeColor=none;fillColor=none;" vertex="1" parent="1">
          <mxGeometry x="340" y="333.5" width="40" height="30" as="geometry" />
        </mxCell>
        <mxCell id="dAVA-3UnieK7vrGghhuB-23" value="1,n" style="text;html=1;align=center;verticalAlign=middle;resizable=0;points=[];autosize=1;strokeColor=none;fillColor=none;" vertex="1" parent="1">
          <mxGeometry x="89" y="301" width="40" height="30" as="geometry" />
        </mxCell>
        <mxCell id="dAVA-3UnieK7vrGghhuB-24" style="rounded=0;orthogonalLoop=1;jettySize=auto;html=1;exitX=0;exitY=0.5;exitDx=0;exitDy=0;entryX=1;entryY=0.5;entryDx=0;entryDy=0;endArrow=none;endFill=0;" edge="1" parent="1" source="dAVA-3UnieK7vrGghhuB-25" target="dAVA-3UnieK7vrGghhuB-49">
          <mxGeometry relative="1" as="geometry" />
        </mxCell>
        <mxCell id="dAVA-3UnieK7vrGghhuB-25" value="Adressen" style="rounded=0;whiteSpace=wrap;html=1;" vertex="1" parent="1">
          <mxGeometry x="-350" y="330" width="120" height="60" as="geometry" />
        </mxCell>
        <mxCell id="dAVA-3UnieK7vrGghhuB-26" value="ist zu erreichen" style="rhombus;whiteSpace=wrap;html=1;" vertex="1" parent="1">
          <mxGeometry x="-360" y="180" width="140" height="80" as="geometry" />
        </mxCell>
        <mxCell id="dAVA-3UnieK7vrGghhuB-27" style="rounded=0;orthogonalLoop=1;jettySize=auto;html=1;exitX=0.5;exitY=1;exitDx=0;exitDy=0;entryX=0.5;entryY=0;entryDx=0;entryDy=0;endArrow=none;endFill=0;" edge="1" parent="1" source="dAVA-3UnieK7vrGghhuB-6" target="dAVA-3UnieK7vrGghhuB-26">
          <mxGeometry relative="1" as="geometry">
            <mxPoint x="130" y="95" as="sourcePoint" />
            <mxPoint x="20" y="-30" as="targetPoint" />
          </mxGeometry>
        </mxCell>
        <mxCell id="dAVA-3UnieK7vrGghhuB-28" style="rounded=0;orthogonalLoop=1;jettySize=auto;html=1;exitX=0.5;exitY=1;exitDx=0;exitDy=0;entryX=0.5;entryY=0;entryDx=0;entryDy=0;endArrow=none;endFill=0;" edge="1" parent="1" source="dAVA-3UnieK7vrGghhuB-26" target="dAVA-3UnieK7vrGghhuB-25">
          <mxGeometry relative="1" as="geometry">
            <mxPoint x="-60" y="445" as="sourcePoint" />
            <mxPoint x="-170" y="445" as="targetPoint" />
          </mxGeometry>
        </mxCell>
        <mxCell id="dAVA-3UnieK7vrGghhuB-29" value="1,n" style="text;strokeColor=none;align=center;fillColor=none;html=1;verticalAlign=middle;whiteSpace=wrap;rounded=0;" vertex="1" parent="1">
          <mxGeometry x="-300" y="304" width="60" height="30" as="geometry" />
        </mxCell>
        <mxCell id="dAVA-3UnieK7vrGghhuB-30" value="1,n" style="text;strokeColor=none;align=center;fillColor=none;html=1;verticalAlign=middle;whiteSpace=wrap;rounded=0;" vertex="1" parent="1">
          <mxGeometry x="130" y="330" width="60" height="30" as="geometry" />
        </mxCell>
        <mxCell id="dAVA-3UnieK7vrGghhuB-31" style="edgeStyle=orthogonalEdgeStyle;rounded=0;orthogonalLoop=1;jettySize=auto;html=1;exitX=0.5;exitY=0;exitDx=0;exitDy=0;entryX=0.5;entryY=1;entryDx=0;entryDy=0;endArrow=none;endFill=0;" edge="1" parent="1" source="dAVA-3UnieK7vrGghhuB-32" target="dAVA-3UnieK7vrGghhuB-25">
          <mxGeometry relative="1" as="geometry" />
        </mxCell>
        <mxCell id="dAVA-3UnieK7vrGghhuB-32" value="verfÃ¼gt" style="rhombus;whiteSpace=wrap;html=1;" vertex="1" parent="1">
          <mxGeometry x="-360" y="460" width="140" height="80" as="geometry" />
        </mxCell>
        <mxCell id="dAVA-3UnieK7vrGghhuB-33" value="&lt;div&gt;1,n&lt;/div&gt;" style="text;html=1;align=center;verticalAlign=middle;resizable=0;points=[];autosize=1;strokeColor=none;fillColor=none;" vertex="1" parent="1">
          <mxGeometry x="-290" y="570" width="40" height="30" as="geometry" />
        </mxCell>
        <mxCell id="dAVA-3UnieK7vrGghhuB-34" style="edgeStyle=orthogonalEdgeStyle;rounded=0;orthogonalLoop=1;jettySize=auto;html=1;exitX=1;exitY=0.5;exitDx=0;exitDy=0;entryX=0;entryY=0.5;entryDx=0;entryDy=0;endArrow=none;endFill=0;" edge="1" parent="1" source="dAVA-3UnieK7vrGghhuB-35" target="dAVA-3UnieK7vrGghhuB-37">
          <mxGeometry relative="1" as="geometry" />
        </mxCell>
        <mxCell id="dAVA-3UnieK7vrGghhuB-35" value="hat" style="rhombus;whiteSpace=wrap;html=1;" vertex="1" parent="1">
          <mxGeometry x="190" y="320" width="140" height="80" as="geometry" />
        </mxCell>
        <mxCell id="dAVA-3UnieK7vrGghhuB-36" style="rounded=0;orthogonalLoop=1;jettySize=auto;html=1;exitX=1;exitY=1;exitDx=0;exitDy=0;entryX=0;entryY=0;entryDx=0;entryDy=0;endArrow=none;endFill=0;" edge="1" parent="1" source="dAVA-3UnieK7vrGghhuB-37" target="dAVA-3UnieK7vrGghhuB-48">
          <mxGeometry relative="1" as="geometry" />
        </mxCell>
        <mxCell id="dAVA-3UnieK7vrGghhuB-37" value="Immobilien-Typ" style="rounded=0;whiteSpace=wrap;html=1;" vertex="1" parent="1">
          <mxGeometry x="375" y="330" width="120" height="60" as="geometry" />
        </mxCell>
        <mxCell id="dAVA-3UnieK7vrGghhuB-38" value="&lt;div&gt;1,1&lt;/div&gt;" style="text;html=1;align=center;verticalAlign=middle;resizable=0;points=[];autosize=1;strokeColor=none;fillColor=none;" vertex="1" parent="1">
          <mxGeometry x="-232" y="330" width="40" height="30" as="geometry" />
        </mxCell>
        <mxCell id="dAVA-3UnieK7vrGghhuB-39" value="&lt;div&gt;1,1&lt;/div&gt;" style="text;html=1;align=center;verticalAlign=middle;resizable=0;points=[];autosize=1;strokeColor=none;fillColor=none;" vertex="1" parent="1">
          <mxGeometry x="-11.5" y="330" width="40" height="30" as="geometry" />
        </mxCell>
        <mxCell id="dAVA-3UnieK7vrGghhuB-40" value="&lt;div&gt;1,n&lt;/div&gt;" style="text;html=1;align=center;verticalAlign=middle;resizable=0;points=[];autosize=1;strokeColor=none;fillColor=none;" vertex="1" parent="1">
          <mxGeometry x="-290" y="110" width="40" height="30" as="geometry" />
        </mxCell>
        <mxCell id="dAVA-3UnieK7vrGghhuB-41" style="rounded=0;orthogonalLoop=1;jettySize=auto;html=1;exitX=0;exitY=0.5;exitDx=0;exitDy=0;entryX=1;entryY=0.5;entryDx=0;entryDy=0;endArrow=none;endFill=0;" edge="1" parent="1" source="dAVA-3UnieK7vrGghhuB-42" target="dAVA-3UnieK7vrGghhuB-25">
          <mxGeometry relative="1" as="geometry" />
        </mxCell>
        <mxCell id="dAVA-3UnieK7vrGghhuB-42" value="hat" style="rhombus;whiteSpace=wrap;html=1;" vertex="1" parent="1">
          <mxGeometry x="-180" y="320" width="140" height="80" as="geometry" />
        </mxCell>
        <mxCell id="dAVA-3UnieK7vrGghhuB-43" value="1,n" style="text;strokeColor=none;align=center;fillColor=none;html=1;verticalAlign=middle;whiteSpace=wrap;rounded=0;" vertex="1" parent="1">
          <mxGeometry x="880" y="740" width="60" height="30" as="geometry" />
        </mxCell>
        <mxCell id="dAVA-3UnieK7vrGghhuB-44" value="&lt;div&gt;1,1&lt;/div&gt;" style="text;html=1;align=center;verticalAlign=middle;resizable=0;points=[];autosize=1;strokeColor=none;fillColor=none;" vertex="1" parent="1">
          <mxGeometry x="-233" y="52" width="40" height="30" as="geometry" />
        </mxCell>
        <mxCell id="dAVA-3UnieK7vrGghhuB-45" value="&lt;u&gt;Anbieter_ID&lt;/u&gt;" style="ellipse;whiteSpace=wrap;html=1;" vertex="1" parent="1">
          <mxGeometry x="-520" y="40" width="120" height="80" as="geometry" />
        </mxCell>
        <mxCell id="dAVA-3UnieK7vrGghhuB-46" value="&lt;u&gt;Immobilien_ID&lt;/u&gt;" style="ellipse;whiteSpace=wrap;html=1;" vertex="1" parent="1">
          <mxGeometry x="158.5" y="420" width="120" height="80" as="geometry" />
        </mxCell>
        <mxCell id="dAVA-3UnieK7vrGghhuB-47" value="&lt;u&gt;Kundennummer&lt;/u&gt;" style="ellipse;whiteSpace=wrap;html=1;" vertex="1" parent="1">
          <mxGeometry x="-520" y="590" width="120" height="80" as="geometry" />
        </mxCell>
        <mxCell id="dAVA-3UnieK7vrGghhuB-48" value="&lt;u&gt;Typ_ID&lt;/u&gt;" style="ellipse;whiteSpace=wrap;html=1;" vertex="1" parent="1">
          <mxGeometry x="510" y="420" width="120" height="80" as="geometry" />
        </mxCell>
        <mxCell id="dAVA-3UnieK7vrGghhuB-49" value="&lt;u&gt;Adress_ID&lt;/u&gt;" style="ellipse;whiteSpace=wrap;html=1;" vertex="1" parent="1">
          <mxGeometry x="-520" y="182.5" width="120" height="80" as="geometry" />
        </mxCell>
        <mxCell id="dAVA-3UnieK7vrGghhuB-50" value="1,n" style="text;html=1;align=center;verticalAlign=middle;resizable=0;points=[];autosize=1;strokeColor=none;fillColor=none;" vertex="1" parent="1">
          <mxGeometry x="89" y="390" width="40" height="30" as="geometry" />
        </mxCell>
        <mxCell id="dAVA-3UnieK7vrGghhuB-51" value="1,n" style="text;html=1;align=center;verticalAlign=middle;resizable=0;points=[];autosize=1;strokeColor=none;fillColor=none;" vertex="1" parent="1">
          <mxGeometry x="-290" y="390" width="40" height="30" as="geometry" />
        </mxCell>
        <mxCell id="dAVA-3UnieK7vrGghhuB-52" value="1,n" style="text;html=1;align=center;verticalAlign=middle;resizable=0;points=[];autosize=1;strokeColor=none;fillColor=none;" vertex="1" parent="1">
          <mxGeometry x="-235" y="603" width="40" height="30" as="geometry" />
        </mxCell>
      </root>
    </mxGraphModel>
  </diagram>
</mxfile>
